<mxfile host="app.diagrams.net" modified="2023-12-29T08:53:24.521Z" agent="Mozilla/5.0 (Windows NT 10.0; Win64; x64) AppleWebKit/537.36 (KHTML, like Gecko) Chrome/120.0.0.0 Safari/537.36" etag="83bMChjOaWU7QXh1Kh62" version="22.1.15" type="github">
  <diagram name="페이지-1" id="0z8tw52NR-uFF0JdVIWy">
    <mxGraphModel dx="634" dy="762" grid="1" gridSize="10" guides="1" tooltips="1" connect="1" arrows="1" fold="1" page="1" pageScale="1" pageWidth="827" pageHeight="1169" math="0" shadow="0">
      <root>
        <mxCell id="0" />
        <mxCell id="1" parent="0" />
        <mxCell id="Wv24xk5U7S-CKYTQd8TP-21" value="나이" style="ellipse;whiteSpace=wrap;html=1;align=center;" vertex="1" parent="1">
          <mxGeometry x="490" y="160" width="104" height="40" as="geometry" />
        </mxCell>
        <mxCell id="Wv24xk5U7S-CKYTQd8TP-25" value="주민등록번호" style="ellipse;whiteSpace=wrap;html=1;align=center;fontStyle=4;" vertex="1" parent="1">
          <mxGeometry x="490" y="10" width="104" height="40" as="geometry" />
        </mxCell>
        <mxCell id="Wv24xk5U7S-CKYTQd8TP-32" value="학생&lt;span style=&quot;white-space: pre;&quot;&gt;&#x9;&lt;/span&gt;&lt;span style=&quot;white-space: pre;&quot;&gt;&#x9;&lt;/span&gt;&lt;span style=&quot;white-space: pre;&quot;&gt;&#x9;&lt;/span&gt;" style="swimlane;childLayout=stackLayout;horizontal=1;startSize=30;horizontalStack=0;rounded=1;fontSize=14;fontStyle=0;strokeWidth=2;resizeParent=0;resizeLast=1;shadow=0;dashed=0;align=center;arcSize=4;whiteSpace=wrap;html=1;" vertex="1" parent="1">
          <mxGeometry x="210" y="230" width="180" height="180" as="geometry" />
        </mxCell>
        <mxCell id="Wv24xk5U7S-CKYTQd8TP-33" value="이름&lt;br&gt;성별&lt;br&gt;이메일&lt;br&gt;주민등록번호&lt;br&gt;키&lt;br&gt;나이&lt;br&gt;주소&lt;br&gt;전화번호&lt;br&gt;자격증" style="align=left;strokeColor=none;fillColor=none;spacingLeft=4;fontSize=12;verticalAlign=top;resizable=0;rotatable=0;part=1;html=1;" vertex="1" parent="Wv24xk5U7S-CKYTQd8TP-32">
          <mxGeometry y="30" width="180" height="150" as="geometry" />
        </mxCell>
        <mxCell id="Wv24xk5U7S-CKYTQd8TP-36" value="성별" style="ellipse;whiteSpace=wrap;html=1;align=center;" vertex="1" parent="1">
          <mxGeometry x="220" y="160" width="100" height="40" as="geometry" />
        </mxCell>
        <mxCell id="Wv24xk5U7S-CKYTQd8TP-41" value="학생" style="shape=table;startSize=30;container=1;collapsible=1;childLayout=tableLayout;fixedRows=1;rowLines=0;fontStyle=1;align=center;resizeLast=1;html=1;" vertex="1" parent="1">
          <mxGeometry x="400" y="230" width="190" height="180" as="geometry" />
        </mxCell>
        <mxCell id="Wv24xk5U7S-CKYTQd8TP-42" value="" style="shape=tableRow;horizontal=0;startSize=0;swimlaneHead=0;swimlaneBody=0;fillColor=none;collapsible=0;dropTarget=0;points=[[0,0.5],[1,0.5]];portConstraint=eastwest;top=0;left=0;right=0;bottom=1;" vertex="1" parent="Wv24xk5U7S-CKYTQd8TP-41">
          <mxGeometry y="30" width="190" height="30" as="geometry" />
        </mxCell>
        <mxCell id="Wv24xk5U7S-CKYTQd8TP-43" value="PK" style="shape=partialRectangle;connectable=0;fillColor=none;top=0;left=0;bottom=0;right=0;fontStyle=1;overflow=hidden;whiteSpace=wrap;html=1;" vertex="1" parent="Wv24xk5U7S-CKYTQd8TP-42">
          <mxGeometry width="30" height="30" as="geometry">
            <mxRectangle width="30" height="30" as="alternateBounds" />
          </mxGeometry>
        </mxCell>
        <mxCell id="Wv24xk5U7S-CKYTQd8TP-44" value="주민등록번호" style="shape=partialRectangle;connectable=0;fillColor=none;top=0;left=0;bottom=0;right=0;align=left;spacingLeft=6;fontStyle=5;overflow=hidden;whiteSpace=wrap;html=1;" vertex="1" parent="Wv24xk5U7S-CKYTQd8TP-42">
          <mxGeometry x="30" width="160" height="30" as="geometry">
            <mxRectangle width="160" height="30" as="alternateBounds" />
          </mxGeometry>
        </mxCell>
        <mxCell id="Wv24xk5U7S-CKYTQd8TP-45" value="" style="shape=tableRow;horizontal=0;startSize=0;swimlaneHead=0;swimlaneBody=0;fillColor=none;collapsible=0;dropTarget=0;points=[[0,0.5],[1,0.5]];portConstraint=eastwest;top=0;left=0;right=0;bottom=0;" vertex="1" parent="Wv24xk5U7S-CKYTQd8TP-41">
          <mxGeometry y="60" width="190" height="30" as="geometry" />
        </mxCell>
        <mxCell id="Wv24xk5U7S-CKYTQd8TP-46" value="" style="shape=partialRectangle;connectable=0;fillColor=none;top=0;left=0;bottom=0;right=0;editable=1;overflow=hidden;whiteSpace=wrap;html=1;" vertex="1" parent="Wv24xk5U7S-CKYTQd8TP-45">
          <mxGeometry width="30" height="30" as="geometry">
            <mxRectangle width="30" height="30" as="alternateBounds" />
          </mxGeometry>
        </mxCell>
        <mxCell id="Wv24xk5U7S-CKYTQd8TP-47" value="이름" style="shape=partialRectangle;connectable=0;fillColor=none;top=0;left=0;bottom=0;right=0;align=left;spacingLeft=6;overflow=hidden;whiteSpace=wrap;html=1;" vertex="1" parent="Wv24xk5U7S-CKYTQd8TP-45">
          <mxGeometry x="30" width="160" height="30" as="geometry">
            <mxRectangle width="160" height="30" as="alternateBounds" />
          </mxGeometry>
        </mxCell>
        <mxCell id="Wv24xk5U7S-CKYTQd8TP-48" value="" style="shape=tableRow;horizontal=0;startSize=0;swimlaneHead=0;swimlaneBody=0;fillColor=none;collapsible=0;dropTarget=0;points=[[0,0.5],[1,0.5]];portConstraint=eastwest;top=0;left=0;right=0;bottom=0;" vertex="1" parent="Wv24xk5U7S-CKYTQd8TP-41">
          <mxGeometry y="90" width="190" height="30" as="geometry" />
        </mxCell>
        <mxCell id="Wv24xk5U7S-CKYTQd8TP-49" value="" style="shape=partialRectangle;connectable=0;fillColor=none;top=0;left=0;bottom=0;right=0;editable=1;overflow=hidden;whiteSpace=wrap;html=1;" vertex="1" parent="Wv24xk5U7S-CKYTQd8TP-48">
          <mxGeometry width="30" height="30" as="geometry">
            <mxRectangle width="30" height="30" as="alternateBounds" />
          </mxGeometry>
        </mxCell>
        <mxCell id="Wv24xk5U7S-CKYTQd8TP-50" value="나이" style="shape=partialRectangle;connectable=0;fillColor=none;top=0;left=0;bottom=0;right=0;align=left;spacingLeft=6;overflow=hidden;whiteSpace=wrap;html=1;" vertex="1" parent="Wv24xk5U7S-CKYTQd8TP-48">
          <mxGeometry x="30" width="160" height="30" as="geometry">
            <mxRectangle width="160" height="30" as="alternateBounds" />
          </mxGeometry>
        </mxCell>
        <mxCell id="Wv24xk5U7S-CKYTQd8TP-51" value="" style="shape=tableRow;horizontal=0;startSize=0;swimlaneHead=0;swimlaneBody=0;fillColor=none;collapsible=0;dropTarget=0;points=[[0,0.5],[1,0.5]];portConstraint=eastwest;top=0;left=0;right=0;bottom=0;" vertex="1" parent="Wv24xk5U7S-CKYTQd8TP-41">
          <mxGeometry y="120" width="190" height="30" as="geometry" />
        </mxCell>
        <mxCell id="Wv24xk5U7S-CKYTQd8TP-52" value="" style="shape=partialRectangle;connectable=0;fillColor=none;top=0;left=0;bottom=0;right=0;editable=1;overflow=hidden;whiteSpace=wrap;html=1;" vertex="1" parent="Wv24xk5U7S-CKYTQd8TP-51">
          <mxGeometry width="30" height="30" as="geometry">
            <mxRectangle width="30" height="30" as="alternateBounds" />
          </mxGeometry>
        </mxCell>
        <mxCell id="Wv24xk5U7S-CKYTQd8TP-53" value="전화번호" style="shape=partialRectangle;connectable=0;fillColor=none;top=0;left=0;bottom=0;right=0;align=left;spacingLeft=6;overflow=hidden;whiteSpace=wrap;html=1;" vertex="1" parent="Wv24xk5U7S-CKYTQd8TP-51">
          <mxGeometry x="30" width="160" height="30" as="geometry">
            <mxRectangle width="160" height="30" as="alternateBounds" />
          </mxGeometry>
        </mxCell>
        <mxCell id="Wv24xk5U7S-CKYTQd8TP-54" value="" style="shape=tableRow;horizontal=0;startSize=0;swimlaneHead=0;swimlaneBody=0;fillColor=none;collapsible=0;dropTarget=0;points=[[0,0.5],[1,0.5]];portConstraint=eastwest;top=0;left=0;right=0;bottom=0;" vertex="1" parent="Wv24xk5U7S-CKYTQd8TP-41">
          <mxGeometry y="150" width="190" height="30" as="geometry" />
        </mxCell>
        <mxCell id="Wv24xk5U7S-CKYTQd8TP-55" value="" style="shape=partialRectangle;connectable=0;fillColor=none;top=0;left=0;bottom=0;right=0;editable=1;overflow=hidden;whiteSpace=wrap;html=1;" vertex="1" parent="Wv24xk5U7S-CKYTQd8TP-54">
          <mxGeometry width="30" height="30" as="geometry">
            <mxRectangle width="30" height="30" as="alternateBounds" />
          </mxGeometry>
        </mxCell>
        <mxCell id="Wv24xk5U7S-CKYTQd8TP-56" value="이메일" style="shape=partialRectangle;connectable=0;fillColor=none;top=0;left=0;bottom=0;right=0;align=left;spacingLeft=6;overflow=hidden;whiteSpace=wrap;html=1;" vertex="1" parent="Wv24xk5U7S-CKYTQd8TP-54">
          <mxGeometry x="30" width="160" height="30" as="geometry">
            <mxRectangle width="160" height="30" as="alternateBounds" />
          </mxGeometry>
        </mxCell>
        <mxCell id="Wv24xk5U7S-CKYTQd8TP-61" value="학생" style="whiteSpace=wrap;html=1;align=center;" vertex="1" parent="1">
          <mxGeometry x="350" y="80" width="100" height="40" as="geometry" />
        </mxCell>
        <mxCell id="Wv24xk5U7S-CKYTQd8TP-62" value="이름" style="ellipse;whiteSpace=wrap;html=1;align=center;" vertex="1" parent="1">
          <mxGeometry x="220" y="10" width="100" height="40" as="geometry" />
        </mxCell>
        <mxCell id="Wv24xk5U7S-CKYTQd8TP-63" value="" style="endArrow=none;html=1;rounded=0;exitX=1;exitY=1;exitDx=0;exitDy=0;" edge="1" parent="1" source="Wv24xk5U7S-CKYTQd8TP-62" target="Wv24xk5U7S-CKYTQd8TP-61">
          <mxGeometry relative="1" as="geometry">
            <mxPoint x="200" y="49.5" as="sourcePoint" />
            <mxPoint x="360" y="49.5" as="targetPoint" />
          </mxGeometry>
        </mxCell>
        <mxCell id="Wv24xk5U7S-CKYTQd8TP-64" value="" style="endArrow=none;html=1;rounded=0;" edge="1" parent="1" source="Wv24xk5U7S-CKYTQd8TP-61" target="Wv24xk5U7S-CKYTQd8TP-25">
          <mxGeometry relative="1" as="geometry">
            <mxPoint x="329.64" y="54" as="sourcePoint" />
            <mxPoint x="383.64" y="80" as="targetPoint" />
          </mxGeometry>
        </mxCell>
        <mxCell id="Wv24xk5U7S-CKYTQd8TP-65" value="" style="endArrow=none;html=1;rounded=0;" edge="1" parent="1" source="Wv24xk5U7S-CKYTQd8TP-61" target="Wv24xk5U7S-CKYTQd8TP-21">
          <mxGeometry relative="1" as="geometry">
            <mxPoint x="330" y="115.53999999999999" as="sourcePoint" />
            <mxPoint x="423" y="89.53999999999999" as="targetPoint" />
          </mxGeometry>
        </mxCell>
        <mxCell id="Wv24xk5U7S-CKYTQd8TP-66" value="" style="endArrow=none;html=1;rounded=0;entryX=0;entryY=1;entryDx=0;entryDy=0;" edge="1" parent="1" source="Wv24xk5U7S-CKYTQd8TP-36" target="Wv24xk5U7S-CKYTQd8TP-61">
          <mxGeometry relative="1" as="geometry">
            <mxPoint x="230" y="112" as="sourcePoint" />
            <mxPoint x="298" y="129" as="targetPoint" />
          </mxGeometry>
        </mxCell>
        <mxCell id="Wv24xk5U7S-CKYTQd8TP-69" value="테이블정의서(문서화)&lt;br&gt;EXCEL&lt;br&gt;" style="text;html=1;align=center;verticalAlign=middle;resizable=0;points=[];autosize=1;strokeColor=none;fillColor=none;strokeWidth=1;" vertex="1" parent="1">
          <mxGeometry x="10" y="360" width="140" height="40" as="geometry" />
        </mxCell>
        <mxCell id="Wv24xk5U7S-CKYTQd8TP-70" value="논리적인모델링&lt;br&gt;RM(관계모델)&lt;br&gt;-PK -FK 결정" style="text;html=1;align=center;verticalAlign=middle;resizable=0;points=[];autosize=1;strokeColor=none;fillColor=none;" vertex="1" parent="1">
          <mxGeometry x="25" y="260" width="110" height="60" as="geometry" />
        </mxCell>
        <mxCell id="Wv24xk5U7S-CKYTQd8TP-71" value="개념적인 모델링&lt;br&gt;ERD&lt;br&gt;" style="text;html=1;align=center;verticalAlign=middle;resizable=0;points=[];autosize=1;strokeColor=none;fillColor=none;" vertex="1" parent="1">
          <mxGeometry x="30" y="190" width="110" height="40" as="geometry" />
        </mxCell>
        <mxCell id="Wv24xk5U7S-CKYTQd8TP-72" value="물리적인 모델링&lt;br&gt;(DataBase)&lt;br&gt;" style="text;html=1;align=center;verticalAlign=middle;resizable=0;points=[];autosize=1;strokeColor=none;fillColor=none;" vertex="1" parent="1">
          <mxGeometry x="20" y="420" width="110" height="40" as="geometry" />
        </mxCell>
      </root>
    </mxGraphModel>
  </diagram>
</mxfile>
